<svg width="20" height="16" viewBox="0 0 20 16" fill="none" xmlns="http://www.w3.org/2000/svg"><rect opacity="0.7" x="2" width="16" height="16" rx="2" fill="#FF6A00"/><rect opacity="0.3" x="7" y="5" width="6" height="6" fill="#00B440"/><path d="M18 3H19C19.5523 3 20 3.44772 20 4C20 4.55228 19.5523 5 19 5H18V3Z" fill="#00B440"/><path d="M18 7H19C19.5523 7 20 7.44772 20 8C20 8.55228 19.5523 9 19 9H18V7Z" fill="#00B440"/><path d="M18 11H19C19.5523 11 20 11.4477 20 12C20 12.5523 19.5523 13 19 13H18V11Z" fill="#00B440"/><path d="M0 4C0 3.44772 0.447715 3 1 3H2V5H1C0.447715 5 0 4.55228 0 4Z" fill="#00B440"/><path d="M0 8C0 7.44772 0.447715 7 1 7H2V9H1C0.447715 9 0 8.55228 0 8Z" fill="#00B440"/><path d="M0 12C0 11.4477 0.447715 11 1 11H2V13H1C0.447715 13 0 12.5523 0 12Z" fill="#00B440"/></svg>