<svg xmlns="http://www.w3.org/2000/svg" width="21" height="21" viewBox="0 0 21 21"><style>.cls-1{fill:#xxx;fill-rule: evenodd;}</style><path class="cls-1" d="M13.3942 10.8799L20.1266 4.14749C20.516 3.75812 20.516 3.12625 20.1266 2.73626L18.5623 1.17191C18.1729 0.782541 17.5411 0.782541 17.1511 1.17191L10.4193 7.90493L3.6869 1.17253C3.29753 0.783166 2.66567 0.783166 2.27567 1.17253L0.711949 2.73626C0.32258 3.12563 0.32258 3.75749 0.711949 4.14749L7.44434 10.8799L0.711949 17.6123C0.32258 18.0016 0.32258 18.6335 0.711949 19.0235L2.2763 20.5879C2.66567 20.9772 3.29753 20.9772 3.68753 20.5879L10.4193 13.8548L17.1517 20.5872C17.5411 20.9766 18.1729 20.9766 18.5629 20.5872L20.1273 19.0229C20.5166 18.6335 20.5166 18.0016 20.1273 17.6117L13.3942 10.8799Z"/></svg>