<svg width="14" height="14" viewBox="0 0 14 14" fill="none" xmlns="http://www.w3.org/2000/svg">
<path fill-rule="evenodd" clip-rule="evenodd" d="M0.25 4.5C0.25 3.94772 0.697715 3.5 1.25 3.5H12.75C13.3023 3.5 13.75 3.94772 13.75 4.5V4.75C13.75 5.30228 13.3023 5.75 12.75 5.75H1.25C0.697715 5.75 0.25 5.30228 0.25 4.75V4.5ZM0.999984 8.24999C0.999984 7.69771 1.4477 7.24999 1.99998 7.24999H5.24998C5.80227 7.24999 6.24998 7.69771 6.24998 8.24999V13C6.24998 13.5523 5.80227 14 5.24998 14H1.99998C1.4477 14 0.999984 13.5523 0.999984 13V8.24999ZM8.74998 7.24999C8.1977 7.24999 7.74998 7.69771 7.74998 8.24999V13C7.74998 13.5523 8.1977 14 8.74998 14H12C12.5523 14 13 13.5523 13 13V8.24999C13 7.69771 12.5523 7.24999 12 7.24999H8.74998Z" fill="#FF6A00"/>
<path opacity="0.3" d="M8.83381 0.626042C9.17846 0.396278 9.64411 0.489408 9.87387 0.834055C10.1036 1.1787 10.0105 1.64435 9.66586 1.87412L6.99984 3.65147L4.33381 1.87412C3.98916 1.64435 3.89603 1.1787 4.1258 0.834055C4.35556 0.489408 4.82121 0.396278 5.16586 0.626042L6.99984 1.84869L8.83381 0.626042Z" fill="#FF6A00"/>
</svg>
