<svg width="34" height="24.6" viewBox="0 0 34 24.6" xmlns="http://www.w3.org/2000/svg">
<style>.cls-1{fill:#xxx;fill-rule: evenodd;}</style>
<path class="cls-1" d="M24.1,10.1c-0.1,0-0.2,0-0.3,0l-1.3,0.3l-1.3-3.2c-0.4-0.9-1.5-1.6-2.5-1.6H6.4c-1,0-2.1,0.7-2.5,1.6l-1.3,3.2
	l-1.3-0.3c-0.1,0-0.2,0-0.3,0c-0.6,0-1,0.5-1,1.1v0.7c0,0.7,0.6,1.3,1.3,1.3h0.1l-0.2,0.5c-0.3,0.8-0.6,2.3-0.6,3.2v6.4
	c0,0.7,0.6,1.3,1.3,1.3h1.7c0.7,0,1.3-0.6,1.3-1.3v-1.6h15v1.6c0,0.7,0.6,1.3,1.3,1.3h1.7c0.7,0,1.3-0.6,1.3-1.3v-6.4
	c0-0.9-0.3-2.3-0.6-3.2l-0.2-0.5h0.2c0.7,0,1.3-0.6,1.3-1.3v-0.7C25.1,10.5,24.7,10.1,24.1,10.1z M3.6,12.5l2-4.9
	c0.2-0.5,0.9-1,1.5-1h11c0.6,0,1.3,0.4,1.5,1l2,4.9c0.2,0.5-0.1,1-0.7,1H4.2C3.7,13.5,3.4,13,3.6,12.5z M8,18.6
	c0,0.3-0.2,0.5-0.5,0.5H3.7c-0.3,0-0.5-0.2-0.5-0.5v-1.8c0-0.3,0.2-0.5,0.5-0.5h3.8c0.3,0,0.5,0.2,0.5,0.5V18.6L8,18.6z M21.9,18.6
	c0,0.3-0.2,0.5-0.5,0.5h-3.8c-0.3,0-0.5-0.2-0.5-0.5v-1.8c0-0.3,0.2-0.5,0.5-0.5h3.8c0.3,0,0.5,0.2,0.5,0.5V18.6z"/>
<path class="cls-1" d="M32.3,0H26c-0.9,0-1.7,0.7-1.7,1.7V8c0,0.9,0.7,1.7,1.7,1.7h2.5v14.2c0,0.3,0.3,0.6,0.6,0.6
	c0.3,0,0.6-0.3,0.6-0.6V9.7h2.5C33.3,9.7,34,8.9,34,8V1.7C34,0.7,33.3,0,32.3,0z M30.9,5.2c-0.4,0.3-0.9,0.5-1.6,0.5h-0.9
	c-0.1,0-0.2,0.1-0.2,0.2v1.5c0,0.2-0.1,0.3-0.3,0.3h-0.7c-0.2,0-0.3-0.1-0.3-0.3V2.2c0-0.2,0.1-0.3,0.3-0.3h1.7
	c1.2,0,1.6,0.2,1.9,0.5c0.4,0.3,0.6,0.8,0.6,1.4C31.4,4.4,31.3,4.9,30.9,5.2z"/>
<path class="cls-1" d="M29.9,3.2C29.7,3,29.4,3,29,3h-0.6c-0.1,0-0.2,0.1-0.2,0.2v1.3c0,0.1,0.1,0.2,0.2,0.2h0.4c0.1,0,0.4,0,0.5,0
	c0.1,0,0.5-0.1,0.6-0.2c0.2-0.1,0.2-0.3,0.2-0.6C30.1,3.5,30.1,3.3,29.9,3.2z"/>
</svg>