<svg width="10" height="13" viewBox="0 0 10 13" fill="none" xmlns="http://www.w3.org/2000/svg">
<path fill-rule="evenodd" clip-rule="evenodd" d="M3.59106 8.20887V9.86787H4.85106C7.39206 9.86787 9.38706 7.91487 9.38706 5.39487C9.38706 2.87487 7.39206 0.921875 4.85106 0.921875C2.31006 0.921875 0.33606 2.87487 0.33606 5.39487H2.12106C2.12106 3.79887 3.23406 2.58087 4.85106 2.58087C6.44706 2.58087 7.60206 3.79887 7.60206 5.39487C7.60206 6.99087 6.44706 8.20887 4.85106 8.20887H3.59106ZM4.99997 10.9999C4.44768 10.9999 3.99997 11.4476 3.99997 11.9999C3.99997 12.5522 4.44768 12.9999 4.99997 12.9999C5.55225 12.9999 5.99997 12.5522 5.99997 11.9999C5.99997 11.4476 5.55225 10.9999 4.99997 10.9999Z" fill="#FF6A00"/>
</svg>
