<svg width="44" height="38" viewBox="0 0 44 38" xmlns="http://www.w3.org/2000/svg"><style>.cls-1{fill:#xxx;fill-rule: evenodd;}</style><path class="cls-1" d="M8.64286 19H15.4286C17.6763 19 19.5 20.8237 19.5 23.0714V33.9286C19.5 36.1763 17.6763 38 15.4286 38H4.57143C2.32366 38 0.5 36.1763 0.5 33.9286V13.5714C0.5 6.07321 6.57321 0 14.0714 0H14.75C15.8781 0 16.7857 0.907589 16.7857 2.03571V6.10714C16.7857 7.23527 15.8781 8.14286 14.75 8.14286H14.0714C11.0772 8.14286 8.64286 10.5772 8.64286 13.5714V19ZM32.6429 19H39.4286C41.6763 19 43.5 20.8237 43.5 23.0714V33.9286C43.5 36.1763 41.6763 38 39.4286 38H28.5714C26.3237 38 24.5 36.1763 24.5 33.9286V13.5714C24.5 6.07321 30.5732 0 38.0714 0H38.75C39.8781 0 40.7857 0.907589 40.7857 2.03571V6.10714C40.7857 7.23527 39.8781 8.14286 38.75 8.14286H38.0714C35.0772 8.14286 32.6429 10.5772 32.6429 13.5714V19Z"/></svg>