<svg width="16" height="21" viewBox="0 0 16 21" fill="none" xmlns="http://www.w3.org/2000/svg"><style>.cls-1{fill:#xxx;fill-rule: evenodd;}</style><path class="cls-1" fill-rule="evenodd" clip-rule="evenodd" d="M0 2.0003L7.63142 0.569412C7.87502 0.523738 8.12498 0.523738 8.36858 0.569412L16 2.0003V9.90358C16 13.6963 14.0462 17.2214 10.83 19.2316L8.53 20.6691C8.20573 20.8717 7.79427 20.8717 7.47 20.6691L5.17001 19.2316C1.95382 17.2214 0 13.6963 0 9.90358L0 2.0003Z"/><path fill-rule="evenodd" clip-rule="evenodd" d="M7.17505 12.75C6.93547 12.75 6.69588 12.6542 6.50422 12.4625L4.58755 10.5458C4.20422 10.1625 4.20422 9.5875 4.58755 9.20417C4.97088 8.82083 5.5938 8.82083 5.92922 9.20417L7.17505 10.45L10.3376 7.2875C10.7209 6.90417 11.2959 6.90417 11.6792 7.2875C12.0626 7.67083 12.0626 8.24583 11.6792 8.62917L7.84588 12.4625C7.65422 12.6542 7.41463 12.75 7.17505 12.75Z" fill="white"/></svg>