<svg width="18" height="17" viewBox="0 0 18 17" fill="none" xmlns="http://www.w3.org/2000/svg">
<path fill-rule="evenodd" clip-rule="evenodd" d="M8.99979 14.5004L4.91541 16.6477C4.42656 16.9047 3.82194 16.7168 3.56494 16.2279C3.4626 16.0333 3.42728 15.8103 3.46446 15.5935L4.24451 11.0455L0.940172 7.82459C0.544689 7.43909 0.536597 6.80598 0.922098 6.4105C1.07561 6.25301 1.27675 6.15052 1.49439 6.1189L6.06086 5.45535L8.10305 1.31742C8.34747 0.822169 8.9471 0.61883 9.44235 0.863253C9.63957 0.960583 9.79919 1.12021 9.89652 1.31742L11.9387 5.45535L16.5052 6.1189C17.0517 6.19832 17.4304 6.70576 17.351 7.25231C17.3194 7.46994 17.2169 7.67108 17.0594 7.82459L13.7551 11.0455L14.5351 15.5935C14.6285 16.1379 14.2629 16.6548 13.7186 16.7482C13.5018 16.7854 13.2788 16.7501 13.0842 16.6477L8.99979 14.5004Z" fill="#FF6A00"/>
</svg>
