<svg width="16" height="16" viewBox="0 0 16 16" fill="none" xmlns="http://www.w3.org/2000/svg"><style>.cls-1{fill:#xxx;fill-rule: evenodd;}</style><path class="cls-1" fill-rule="evenodd" clip-rule="evenodd" d="M7.9149 10.1427L10.1189 7.93868C10.7276 7.32996 10.8786 6.40001 10.4936 5.63003L10.3687 5.38027C9.9837 4.6103 10.1346 3.68035 10.7433 3.07163L13.4761 0.338829C13.6714 0.143567 13.988 0.143567 14.1832 0.338829C14.2212 0.37683 14.2529 0.420709 14.2769 0.468776L15.3809 2.67673C16.2254 4.36584 15.8944 6.40586 14.559 7.74122L8.56019 13.74C7.10665 15.1936 4.95663 15.7011 3.0065 15.0511L0.592022 14.2463C0.33005 14.1589 0.18847 13.8758 0.275794 13.6138C0.30034 13.5402 0.341695 13.4733 0.396582 13.4184L3.04785 10.7671C3.65658 10.1584 4.58652 10.0075 5.3565 10.3925L5.60626 10.5173C6.37623 10.9023 7.30618 10.7514 7.9149 10.1427Z"/></svg>