<svg width="22" height="19" viewBox="0 0 22 19" fill="none" xmlns="http://www.w3.org/2000/svg">
<path fill-rule="evenodd" clip-rule="evenodd" d="M14.25 17.6479C14.25 18.39 15.2124 18.6814 15.624 18.0639L21.4727 9.29103C21.8049 8.79261 21.4476 8.125 20.8486 8.125H16.25V2.60208C16.25 1.86003 15.2876 1.56863 14.876 2.18606L9.02735 10.959C8.69507 11.4574 9.05237 12.125 9.65139 12.125H14.25V17.6479Z" fill="#FF6A00"/>
<path opacity="0.3" fill-rule="evenodd" clip-rule="evenodd" d="M2.25 4.625C2.25 3.79657 2.92157 3.125 3.75 3.125H8.75C9.57843 3.125 10.25 3.79657 10.25 4.625C10.25 5.45343 9.57843 6.125 8.75 6.125H3.75C2.92157 6.125 2.25 5.45343 2.25 4.625ZM2.25 16.625C2.25 15.7966 2.92157 15.125 3.75 15.125H8.75C9.57843 15.125 10.25 15.7966 10.25 16.625C10.25 17.4534 9.57843 18.125 8.75 18.125H3.75C2.92157 18.125 2.25 17.4534 2.25 16.625ZM1.75 9.125C0.921573 9.125 0.25 9.79657 0.25 10.625C0.25 11.4534 0.921573 12.125 1.75 12.125H5.75C6.57843 12.125 7.25 11.4534 7.25 10.625C7.25 9.79657 6.57843 9.125 5.75 9.125H1.75Z" fill="#FF6A00"/>
</svg>
