<?xml version="1.0" encoding="utf-8"?>
<svg version="1.1" id="Слой_1" xmlns="http://www.w3.org/2000/svg" xmlns:xlink="http://www.w3.org/1999/xlink" x="0px" y="0px"
	 viewBox="0 0 1429.6 1670.6" xml:space="preserve">
<style>.cls-1{fill:#xxx;fill-rule: evenodd;}</style>
<path class="cls-1" d="M1429.3,675.9c-13.7,1.3-27.4,2-41.1,2.1c-150.4,0-290.7-75.8-373.2-201.7V1163c0,280.3-227.2,507.6-507.6,507.6
	S0,1443.4,0,1163s227.2-507.6,507.6-507.6l0,0c10.6,0,21,1,31.4,1.6v250.1c-10.4-1.3-20.7-3.2-31.4-3.2c-143.1,0-259,116-259,259
	c0,143.1,116,259,259,259c143.1,0,269.5-112.7,269.5-255.8L779.5,0h239.3c22.6,214.6,195.6,382.2,410.8,397.9v278"/>
</svg>
