<svg width="18" height="18" viewBox="0 0 18 18" fill="none" xmlns="http://www.w3.org/2000/svg">
<path fill-rule="evenodd" clip-rule="evenodd" d="M13.2582 0.432952L10.3331 3.35809C9.55203 4.13914 9.55203 5.40547 10.3331 6.18651L11.7473 7.60073C12.5283 8.38178 13.7947 8.38178 14.5757 7.60073L17.5009 4.67559C18.0426 6.67013 17.5381 8.88103 15.983 10.4361C14.1538 12.2653 11.417 12.6409 9.19246 11.5698L4.06582 16.6964C3.28478 17.4775 2.01845 17.4775 1.2374 16.6964C0.456349 15.9154 0.456349 14.649 1.2374 13.868L6.36403 8.74135C5.29294 6.51678 5.66852 3.78001 7.49774 1.95078C9.05278 0.395746 11.2637 -0.10877 13.2582 0.432952Z" fill="#FF6A00"/>
<path opacity="0.3" fill-rule="evenodd" clip-rule="evenodd" d="M13.9654 2.55364L15.3797 3.96785C15.7702 4.35837 15.7702 4.99154 15.3797 5.38206L14 6.76174C13.6095 7.15226 12.9763 7.15226 12.5858 6.76174L11.1716 5.34752C10.781 4.957 10.781 4.32384 11.1716 3.93331L12.5512 2.55364C12.9418 2.16311 13.5749 2.16311 13.9654 2.55364Z" fill="#FF6A00"/>
</svg>
