<svg width="23" height="20" viewBox="0 0 23 20" fill="none" xmlns="http://www.w3.org/2000/svg"><style>.cls-1{fill:#xxx;fill-rule: evenodd;}</style><path class="cls-1" d="M22.3771 2.59488C21.5595 2.97056 20.68 3.22464 19.7576 3.33812C20.6994 2.75347 21.4221 1.82838 21.7632 0.724271C20.882 1.26593 19.9056 1.65887 18.8673 1.87067C18.0354 0.952636 16.8501 0.378906 15.5377 0.378906C13.0196 0.378906 10.9773 2.49515 10.9773 5.10442C10.9773 5.4748 11.0178 5.83532 11.096 6.18139C7.30595 5.98439 3.94544 4.10321 1.69603 1.24338C1.30356 1.94115 1.07841 2.75347 1.07841 3.61935C1.07841 5.25842 1.88411 6.70543 3.1071 7.55263C2.3599 7.52832 1.65624 7.31581 1.04168 6.96093C1.04134 6.98102 1.04134 7.00111 1.04134 7.02084C1.04134 9.31047 2.61396 11.2202 4.69978 11.654C4.31751 11.7626 3.91381 11.82 3.49855 11.82C3.20403 11.82 2.91869 11.7908 2.64049 11.7358C3.22069 13.6127 4.90452 14.979 6.90056 15.0175C5.33951 16.2851 3.3734 17.0403 1.23622 17.0403C0.868913 17.0403 0.505009 17.0181 0.148926 16.9741C2.16605 18.3153 4.56374 19.0973 7.13897 19.0973C15.5272 19.0973 20.1144 11.8968 20.1144 5.65172C20.1144 5.44696 20.11 5.24292 20.1011 5.04063C20.9929 4.37457 21.7659 3.54252 22.3771 2.59488Z"/></svg>