<svg width="31" height="19" viewBox="0 0 31 19" fill="none" xmlns="http://www.w3.org/2000/svg"><style>.cls-1{fill:#xxx;fill-rule: evenodd;}</style><path class="cls-1" clip-rule="evenodd" d="M29.3471 1.99219C29.5626 1.30922 29.3471 0.812734 28.3935 0.812734H25.2226C24.4228 0.812734 24.0535 1.24746 23.8379 1.71246C23.8379 1.71246 22.2068 5.68434 19.929 8.25939C19.1903 9.00412 18.8519 9.25236 18.4517 9.25236C18.2361 9.25236 17.9588 9.00412 17.9588 8.32176V1.9601C17.9588 1.15361 17.713 0.78125 17.0355 0.78125H12.0488C11.556 0.78125 11.2484 1.15361 11.2484 1.52598C11.2484 2.30158 12.3873 2.48807 12.5102 4.65988V9.37891C12.5102 10.4028 12.3286 10.5898 11.9253 10.5898C10.8482 10.5898 8.23195 6.58709 6.66258 2.02609C6.35742 1.12273 6.04742 0.78125 5.24699 0.78125H2.04588C1.12254 0.78125 0.96875 1.21537 0.96875 1.68098C0.96875 2.51895 2.04588 6.73846 5.98566 12.3233C8.60189 16.1378 12.3261 18.1879 15.681 18.1879C17.713 18.1879 17.9588 17.7223 17.9588 16.9467V14.061C17.9588 13.1304 18.1435 12.9754 18.7901 12.9754C19.2515 12.9754 20.0828 13.223 21.9604 15.054C24.1146 17.2258 24.4839 18.2188 25.6846 18.2188H28.8548C29.7782 18.2188 30.2093 17.7531 29.9628 16.8534C29.6861 15.9537 28.6393 14.6507 27.2848 13.0995C26.5462 12.2313 25.4382 11.2692 25.0997 10.8036C24.6383 10.183 24.7612 9.93473 25.0997 9.37648C25.0688 9.37648 28.9475 3.8534 29.3471 1.98977"/></svg>