<svg width="22" height="22" viewBox="0 0 22 22" fill="none" xmlns="http://www.w3.org/2000/svg"><path opacity="0.3" fill-rule="evenodd" clip-rule="evenodd" d="M9.5 2C9.5 1.17157 10.1716 0.5 11 0.5C11.8284 0.5 12.5 1.17157 12.5 2V3.5C12.5 4.32843 11.8284 5 11 5C10.1716 5 9.5 4.32843 9.5 3.5V2ZM2 9.5C1.17157 9.5 0.5 10.1716 0.5 11C0.5 11.8284 1.17157 12.5 2 12.5H3.5C4.32843 12.5 5 11.8284 5 11C5 10.1716 4.32843 9.5 3.5 9.5H2ZM17 11C17 10.1716 17.6716 9.5 18.5 9.5H20C20.8284 9.5 21.5 10.1716 21.5 11C21.5 11.8284 20.8284 12.5 20 12.5H18.5C17.6716 12.5 17 11.8284 17 11ZM15.0607 15.0607C14.4749 15.6464 14.4749 16.5962 15.0607 17.182L16.1213 18.2426C16.7071 18.8284 17.6569 18.8284 18.2426 18.2426C18.8284 17.6569 18.8284 16.7071 18.2426 16.1213L17.182 15.0607C16.5962 14.4749 15.6464 14.4749 15.0607 15.0607ZM11 17C10.1716 17 9.5 17.6716 9.5 18.5V20C9.5 20.8284 10.1716 21.5 11 21.5C11.8284 21.5 12.5 20.8284 12.5 20V18.5C12.5 17.6716 11.8284 17 11 17ZM3.81066 5.93198C3.22487 5.34619 3.22487 4.39645 3.81066 3.81066C4.39645 3.22487 5.34619 3.22487 5.93198 3.81066L6.99264 4.87132C7.57843 5.45711 7.57843 6.40686 6.99264 6.99264C6.40685 7.57843 5.45711 7.57843 4.87132 6.99264L3.81066 5.93198ZM3.81066 18.2426C3.22487 17.6569 3.22487 16.7071 3.81066 16.1213L4.87132 15.0607C5.45711 14.4749 6.40685 14.4749 6.99264 15.0607C7.57843 15.6464 7.57843 16.5962 6.99264 17.182L5.93198 18.2426C5.34619 18.8284 4.39645 18.8284 3.81066 18.2426Z" fill="#FF6A00"/><rect x="14" y="5.93164" width="4.5" height="3" rx="1.5" transform="rotate(-45 14 5.93164)" fill="#00B440"/></svg>