<svg width="28" height="28" viewBox="0 0 28 28" fill="none" xmlns="http://www.w3.org/2000/svg">
<g clip-path="url(#clip0)">
<path d="M23.94 4.02383C21.28 1.4525 17.78 0 14.0525 0C3.35417 0 -3.3635 11.5908 1.97867 20.811L0 28L7.39083 26.0727C10.6108 27.8122 13.2487 27.6582 14.0595 27.7608C26.4647 27.7608 32.6398 12.7528 23.9225 4.06933L23.94 4.02383Z" fill="#ECEFF1"/>
<path d="M14.0775 25.3759L14.0705 25.3748H14.0519C10.3395 25.3748 7.96771 23.6166 7.73438 23.5151L3.35938 24.6526L4.53187 20.4001L4.25304 19.9626C3.09804 18.1239 2.48438 16.0064 2.48438 13.8259C2.48438 3.56742 15.0202 -1.56241 22.2745 5.68843C29.5114 12.8634 24.4305 25.3759 14.0775 25.3759Z" fill="#4CAF50"/>
<path d="M20.425 16.6915L20.4145 16.779C20.0633 16.604 18.353 15.7675 18.0345 15.652C17.3193 15.3872 17.5212 15.61 16.148 17.1827C15.9438 17.4102 15.7408 17.4277 15.3943 17.2702C15.0443 17.0952 13.9208 16.7277 12.5908 15.5377C11.5548 14.6102 10.8595 13.4727 10.6542 13.1227C10.3123 12.5324 11.0275 12.4484 11.6785 11.2164C11.7952 10.9714 11.7357 10.7789 11.6493 10.605C11.5618 10.43 10.8653 8.71503 10.5737 8.03137C10.2937 7.35003 10.0055 7.43637 9.78966 7.43637C9.11766 7.37804 8.62649 7.38737 8.19366 7.8377C6.31066 9.90737 6.78549 12.0424 8.39666 14.3127C11.563 18.4567 13.25 19.2197 16.3347 20.279C17.1677 20.5439 17.9272 20.5065 18.528 20.4202C19.1977 20.314 20.5895 19.579 20.88 18.7565C21.1775 17.934 21.1775 17.2515 21.09 17.094C21.0037 16.9365 20.775 16.849 20.425 16.6915Z" fill="#FAFAFA"/>
</g>
<defs>
<clipPath id="clip0">
<rect width="28" height="28" fill="white"/>
</clipPath>
</defs>
</svg>
